<svg width="734" height="615" viewBox="0 0 734 615" fill="none" xmlns="http://www.w3.org/2000/svg">
<g filter="url(#filter0_f)">
<path d="M393.104 207.476L609.491 333.86L340.198 490.715L124.604 368.834L393.104 207.476Z" fill="black" fill-opacity="0.3"/>
</g>
<path opacity="0.3" d="M327.798 59.2843L65.4016 213.305C62.8676 214.813 60.7703 216.967 59.3202 219.552C57.8701 222.137 57.1182 225.063 57.1398 228.034C57.1616 231.006 57.9561 233.919 59.4439 236.483C60.9316 239.046 63.0601 241.169 65.616 242.638L386.564 424.449C390.442 426.647 394.806 427.821 399.252 427.862C403.698 427.904 408.082 426.812 412 424.687L658.789 290.77C661.926 289.051 664.554 286.519 666.404 283.435C668.254 280.351 669.259 276.825 669.317 273.219C669.374 269.613 668.481 266.056 666.729 262.914C664.978 259.772 662.431 257.157 659.35 255.337L327.798 59.2843Z" fill="#DB2955"/>
<path d="M327.804 51.8973L65.407 205.918C62.8729 207.426 60.7757 209.58 59.3256 212.165C57.8755 214.75 57.1235 217.676 57.1452 220.647C57.167 223.619 57.9615 226.532 59.4493 229.096C60.937 231.659 63.0655 233.782 65.6214 235.251L386.57 417.062C390.448 419.26 394.811 420.434 399.257 420.475C403.703 420.517 408.088 419.425 412.005 417.3L658.794 283.383C661.931 281.664 664.56 279.132 666.41 276.048C668.26 272.964 669.265 269.438 669.322 265.832C669.379 262.226 668.486 258.669 666.735 255.527C664.983 252.385 662.437 249.77 659.356 247.95L327.804 51.8973Z" fill="url(#paint0_linear)"/>
<path opacity="0.32" d="M448.625 146.371L548.382 209.326L527.739 233.429L419.313 165.607C430.452 157.96 438.908 155.849 448.625 146.371Z" fill="url(#paint1_linear)"/>
<path d="M437.263 152.929L421.378 160.631C420.781 160.923 420.275 161.372 419.912 161.931C419.549 162.491 419.343 163.139 419.317 163.807C419.291 164.476 419.445 165.138 419.764 165.725C420.082 166.311 420.552 166.8 421.124 167.137L458.749 189.347C459.568 189.848 460.55 190.004 461.482 189.782C462.414 189.56 463.222 188.978 463.733 188.16L472.896 173.813" fill="#56403D"/>
<path d="M516.509 110.847L389.058 36.3058C388.181 35.7918 387.186 35.5216 386.174 35.5224C385.161 35.5233 384.167 35.7951 383.291 36.3105C382.415 36.8259 381.689 37.5666 381.186 38.4577C380.683 39.3488 380.421 40.3587 380.426 41.3853L380.372 118.855C380.371 119.707 380.591 120.544 381.01 121.283C381.429 122.021 382.033 122.634 382.761 123.061L518.585 202.626C519.054 202.904 519.587 203.052 520.131 203.054C520.674 203.056 521.208 202.913 521.679 202.637C522.15 202.362 522.541 201.965 522.811 201.487C523.082 201.009 523.222 200.467 523.219 199.916L523.273 122.786C523.278 120.369 522.656 117.993 521.469 115.897C520.282 113.802 518.571 112.06 516.509 110.847Z" fill="#DB2955"/>
<path d="M388.86 42.4756L513.219 114.584C514.548 115.353 515.652 116.461 516.419 117.796C517.186 119.131 517.59 120.646 517.589 122.189L517.549 180.192C517.548 180.747 517.402 181.291 517.126 181.771C516.85 182.251 516.453 182.65 515.976 182.927C515.499 183.205 514.957 183.351 514.406 183.352C513.855 183.353 513.313 183.208 512.835 182.931L386.003 109.586C385.529 109.312 385.135 108.917 384.861 108.441C384.586 107.966 384.441 107.426 384.44 106.876L384.483 45.0291C384.484 44.514 384.62 44.0082 384.876 43.5622C385.132 43.1161 385.499 42.7454 385.942 42.4871C386.385 42.2287 386.888 42.0917 387.4 42.0897C387.912 42.0877 388.415 42.2207 388.86 42.4756Z" fill="white"/>
<path d="M437.985 149.196C437.664 147.505 438.591 145.904 440.055 145.62C441.518 145.336 442.965 146.477 443.286 148.168C443.607 149.859 442.681 151.46 441.217 151.744C439.753 152.028 438.306 150.887 437.985 149.196Z" fill="#AB643C"/>
<path d="M507.849 117.685C506.952 117.684 506.226 116.949 506.226 116.042C506.227 115.136 506.954 114.401 507.851 114.402C508.748 114.403 509.475 115.138 509.474 116.045C509.473 116.951 508.746 117.686 507.849 117.685Z" fill="#659FE4"/>
<path d="M503.385 115.22C502.713 115.219 502.168 114.668 502.168 113.988C502.169 113.308 502.714 112.757 503.387 112.757C504.06 112.758 504.605 113.309 504.604 113.989C504.604 114.669 504.058 115.22 503.385 115.22Z" fill="#C5E9FF"/>
<path opacity="0.32" d="M330.18 70.777L397.427 111.357L364.614 130.718L300.818 93.4523C312.052 85.8276 320.453 80.1847 330.18 70.777Z" fill="url(#paint2_linear)"/>
<path opacity="0.32" d="M270.345 198.777L352.682 238.935L260.583 302.188L196.769 264.761C208.007 257.103 260.631 208.225 270.345 198.777Z" fill="url(#paint3_linear)"/>
<path opacity="0.32" d="M443.414 256.352L540.187 318.1L414.172 399.147L331.498 343.678C342.712 335.992 433.721 265.834 443.414 256.352Z" fill="url(#paint4_linear)"/>
<path opacity="0.32" d="M553.304 255.607L620.586 296.187L587.755 315.548L523.976 278.283C535.166 270.658 543.571 265.015 553.304 255.607Z" fill="#DB2955"/>
<path d="M589.753 265.389C589.332 266.063 556.738 284.337 556.738 284.337L534.197 271.635L523.985 265.664L536.559 258.361L556.865 246.581L589.753 265.389Z" fill="#967371"/>
<path d="M556.45 284.52L556.441 297.469L523.976 278.006L523.985 265.436L556.45 284.52Z" fill="#56403D"/>
<path d="M589.753 265.482L589.744 278.266L556.441 297.469L556.45 284.652L589.753 265.482Z" fill="#56403D"/>
<path d="M556.052 272.846C549.102 272.841 543.469 269.53 543.472 265.45C543.475 261.37 549.112 258.067 556.063 258.072C563.013 258.076 568.646 261.388 568.643 265.467C568.64 269.547 563.003 272.85 556.052 272.846Z" fill="#56403D"/>
<path d="M553.241 228.52C553.242 227.161 554.334 226.06 555.679 226.061C557.024 226.062 558.114 227.164 558.113 228.523L558.087 265.462C558.086 266.821 556.995 267.922 555.65 267.921C554.304 267.92 553.215 266.817 553.216 265.459L553.241 228.52Z" fill="#6D5351"/>
<path d="M555.671 236.731C548.496 236.726 542.684 230.843 542.689 223.59C542.694 216.337 548.515 210.461 555.689 210.466C562.864 210.471 568.677 216.355 568.672 223.608C568.666 230.861 562.846 236.736 555.671 236.731Z" fill="#ED1C24"/>
<path d="M555.336 209.645C553.639 211.285 552.278 213.266 551.335 215.468C550.392 217.67 549.886 220.048 549.848 222.459C549.666 225.581 550.562 228.669 552.374 231.164C554.187 233.658 556.796 235.396 559.732 236.063C557.958 236.666 556.08 236.864 554.227 236.644C552.373 236.425 550.586 235.792 548.988 234.79C547.389 233.788 546.017 232.44 544.963 230.837C543.909 229.233 543.199 227.413 542.881 225.499C542.562 223.584 542.643 221.621 543.117 219.742C543.592 217.863 544.449 216.112 545.63 214.608C546.811 213.105 548.29 211.883 549.965 211.027C551.639 210.17 553.471 209.699 555.336 209.645Z" fill="#E01B2A"/>
<path d="M561.369 216.515C562.781 217.67 563.864 219.153 564.518 220.824C565.171 222.496 565.372 224.3 565.102 226.068C566.361 223.531 566.582 220.629 565.718 217.942C564.355 213.219 561.369 216.515 561.369 216.515Z" fill="white"/>
<path d="M285.287 145.094C304.127 139.708 328.518 152.418 345.036 160.062C369.512 171.696 393.269 184.813 416.18 199.339C435.359 211.199 448.673 223.308 453.383 246.53C454.197 256.87 454.626 267.211 453.367 270.222C450.781 276.99 376.413 343.649 339.258 347.278C302.103 350.908 353.044 259.728 348.508 252.431C343.971 245.134 303.282 222.174 297.03 224.252C290.778 226.329 206.618 276.261 199.972 265.883C178.729 232.563 247.088 155.983 285.287 145.094Z" fill="#DB2955"/>
<path d="M196.554 245.8C196.554 245.8 199.427 261.295 212.792 258.493C226.156 255.692 285.926 207.664 297.174 210.398C308.421 213.132 352.681 239.441 352.681 239.441L348.679 257.2L293.539 228.851C293.539 228.851 229.8 271.56 208.29 270.105C186.781 268.651 196.554 245.8 196.554 245.8Z" fill="#981C3B"/>
<path d="M333.538 336.015C339.114 335.596 344.389 333.148 349.28 330.548C355.611 327.171 361.892 323.658 368.14 320.146C381.628 312.623 394.58 304.158 406.9 294.813C416.633 287.38 426.617 280.202 436.132 272.482C442.749 267.11 449.283 261.146 453.876 253.897C454.289 261.42 454.335 267.947 453.429 270.296C450.846 277.057 376.545 343.653 339.424 347.279C329.963 348.202 326.233 342.975 325.821 334.555C328.217 335.731 330.883 336.235 333.538 336.015Z" fill="#981C3B"/>
<path d="M291.817 193.867C276.122 193.856 263.405 184.477 263.413 172.917C263.421 161.358 276.151 151.996 291.846 152.007C307.541 152.018 320.258 161.398 320.25 172.957C320.242 184.516 307.512 193.878 291.817 193.867Z" fill="#505A63"/>
<path d="M402.195 262.068C385.155 262.057 371.348 251.941 371.357 239.476C371.365 227.01 385.186 216.914 402.226 216.926C419.267 216.937 433.074 227.053 433.065 239.519C433.056 251.984 419.235 262.08 402.195 262.068Z" fill="#505A63"/>
<path d="M352.69 227.561C344.618 227.556 338.077 223.876 338.08 219.343C338.084 214.81 344.63 211.14 352.701 211.146C360.773 211.151 367.314 214.831 367.311 219.364C367.308 223.897 360.762 227.567 352.69 227.561Z" fill="#757575"/>
<path d="M365.684 222.628C365.684 222.628 362.833 216.162 358.242 215.471C353.651 214.78 344.535 213.209 341.177 216.13C337.818 219.05 338.084 220.632 338.084 220.632C339.433 222.743 341.268 224.477 343.426 225.678C345.585 226.88 347.999 227.512 350.453 227.518C359.436 227.988 364.631 224.502 365.684 222.628Z" fill="#494949"/>
<path d="M351.475 224.277C346.318 224.274 342.139 221.147 342.142 217.294C342.145 213.441 346.327 210.32 351.484 210.324C356.641 210.328 360.82 213.454 360.817 217.307C360.814 221.16 356.632 224.281 351.475 224.277Z" fill="#090502"/>
<path d="M352.29 218.532C346.237 218.528 341.332 215.034 341.335 210.727C341.338 206.421 346.248 202.933 352.301 202.938C358.355 202.942 363.26 206.436 363.257 210.743C363.254 215.049 358.344 218.537 352.29 218.532Z" fill="#757575"/>
<path d="M363.256 211.473C362.979 215.411 358.117 218.536 352.298 218.532C346.48 218.528 341.331 215.283 341.334 211.117C341.348 210.565 341.453 210.018 341.643 209.496C346.516 215.043 355.912 214.256 363.256 211.473Z" fill="#494949"/>
<path d="M323.062 215.229C314.766 215.223 308.044 211.544 308.047 207.011C308.05 202.478 314.778 198.808 323.074 198.813C331.37 198.819 338.092 202.499 338.089 207.032C338.086 211.565 331.358 215.235 323.062 215.229Z" fill="#757575"/>
<path d="M336.463 210.607C336.463 210.607 333.612 204.543 329.02 203.895C324.429 203.247 315.313 201.773 311.955 204.512C308.597 207.25 308.863 208.734 308.863 208.734C310.211 210.713 312.047 212.339 314.205 213.466C316.364 214.593 318.778 215.185 321.231 215.191C330.214 215.616 335.41 212.347 336.463 210.607Z" fill="#494949"/>
<path d="M322.252 211.945C317.095 211.942 312.917 208.815 312.919 204.962C312.922 201.109 317.105 197.988 322.262 197.992C327.419 197.996 331.597 201.122 331.594 204.975C331.592 208.828 327.409 211.949 322.252 211.945Z" fill="#090502"/>
<path d="M323.068 206.2C317.015 206.196 312.109 202.885 312.112 198.806C312.115 194.726 317.025 191.422 323.079 191.426C329.132 191.431 334.038 194.741 334.035 198.821C334.032 202.901 329.122 206.205 323.068 206.2Z" fill="#757575"/>
<path d="M334.035 199.141C333.758 203.079 328.896 206.204 323.077 206.2C317.258 206.196 312.109 202.951 312.112 198.785C312.127 198.233 312.232 197.686 312.421 197.164C317.209 202.695 326.605 201.924 334.035 199.141Z" fill="#494949"/>
<path d="M383.346 196.722L372.458 190.372C371.856 190.01 371.167 189.818 370.464 189.818C369.761 189.817 369.071 190.008 368.469 190.369L368.319 190.452C367.756 190.803 367.295 191.294 366.979 191.875C366.663 192.456 366.504 193.108 366.518 193.768C366.531 194.428 366.715 195.073 367.053 195.642C367.392 196.21 367.872 196.682 368.448 197.011L379.487 203.278C380.095 203.622 380.787 203.795 381.486 203.777C382.186 203.76 382.868 203.554 383.459 203.181C383.999 202.826 384.441 202.341 384.743 201.771C385.045 201.201 385.198 200.565 385.187 199.921C385.175 199.277 385.001 198.646 384.679 198.087C384.357 197.528 383.899 197.058 383.346 196.722Z" fill="#505A63"/>
<path d="M356.562 180.693L345.675 173.97C345.073 173.587 344.384 173.384 343.681 173.384C342.978 173.383 342.288 173.585 341.686 173.967L341.535 174.055C340.973 174.427 340.511 174.946 340.196 175.561C339.88 176.177 339.721 176.867 339.734 177.566C339.747 178.265 339.932 178.949 340.27 179.55C340.608 180.152 341.089 180.651 341.665 181L352.703 187.636C353.312 187.999 354.003 188.182 354.703 188.164C355.402 188.146 356.084 187.928 356.675 187.533C357.216 187.157 357.658 186.643 357.96 186.04C358.262 185.436 358.414 184.762 358.403 184.08C358.392 183.399 358.217 182.731 357.896 182.139C357.574 181.547 357.115 181.049 356.562 180.693Z" fill="#505A63"/>
<path d="M312.937 180.095C312.296 180.196 299.673 187.306 299.673 187.306L269.912 169.202L283.413 161.03L312.937 180.062" fill="#090502"/>
<path d="M311.32 169.778L283.911 185.654C283.911 185.654 272.029 178.074 272.347 177.706C272.666 177.339 299.186 162.682 299.186 162.682L311.32 169.778Z" fill="#090502"/>
<path d="M311.323 166.795L311.321 170.078L307.262 169.062L311.323 166.795Z" fill="#090502"/>
<path d="M269.913 166.766L269.912 169.228L273.16 168.611L269.913 166.766Z" fill="#090502"/>
<path d="M272.343 174.975L272.341 177.829L274.181 179.081L274.778 177.038L272.343 174.975Z" fill="#090502"/>
<path d="M312.937 179.928L312.939 177.466L308.879 177.947L310.641 179.292L312.937 179.928Z" fill="#090502"/>
<path d="M312.939 177.629C312.298 177.729 299.675 184.844 299.675 184.844L269.914 166.745L283.415 158.568L312.939 177.612" fill="#757575"/>
<path d="M311.323 166.748L283.913 183.191C283.913 183.191 272.031 175.341 272.349 174.961C272.668 174.58 299.188 159.399 299.188 159.399L311.323 166.748Z" fill="#757575"/>
<path d="M413.975 253.048C410.163 253.045 407.074 251.206 407.076 248.939C407.077 246.673 410.169 244.838 413.98 244.84C417.792 244.843 420.881 246.682 420.879 248.949C420.877 251.215 417.786 253.051 413.975 253.048Z" fill="#C6172B"/>
<path d="M420.878 248.949L420.882 244.024L407.079 244.015L407.075 248.939" fill="#C6172B"/>
<path d="M413.977 248.123C410.166 248.121 407.077 246.281 407.079 244.015C407.08 241.748 410.172 239.913 413.983 239.916C417.795 239.918 420.883 241.758 420.882 244.024C420.88 246.291 417.789 248.126 413.977 248.123Z" fill="#F62435"/>
<path d="M412.361 237.452C408.55 237.449 405.461 235.61 405.463 233.343C405.464 231.077 408.555 229.242 412.367 229.244C416.179 229.247 419.267 231.086 419.266 233.353C419.264 235.62 416.173 237.455 412.361 237.452Z" fill="#D38A09"/>
<path d="M419.266 233.353L419.27 228.428L405.466 228.419L405.463 233.343" fill="#D38A09"/>
<path d="M412.365 232.527C408.553 232.525 405.464 230.685 405.466 228.419C405.468 226.152 408.559 224.317 412.37 224.32C416.182 224.322 419.271 226.162 419.269 228.428C419.268 230.695 416.176 232.53 412.365 232.527Z" fill="#F4BD21"/>
<path d="M391.251 237.437C387.439 237.435 384.351 235.595 384.352 233.329C384.354 231.062 387.445 229.227 391.257 229.23C395.068 229.232 398.157 231.072 398.155 233.338C398.154 235.605 395.063 237.44 391.251 237.437Z" fill="#0071BC"/>
<path d="M398.155 233.338L398.159 228.414L384.356 228.404L384.352 233.329" fill="#0071BC"/>
<path d="M391.254 232.513C387.443 232.51 384.354 230.671 384.356 228.404C384.357 226.138 387.448 224.302 391.26 224.305C395.072 224.308 398.16 226.147 398.159 228.414C398.157 230.68 395.066 232.515 391.254 232.513Z" fill="#29ABE2"/>
<path d="M393.677 251.392C389.866 251.39 386.777 249.55 386.778 247.284C386.78 245.017 389.871 243.182 393.683 243.184C397.495 243.187 400.583 245.027 400.582 247.293C400.58 249.56 397.489 251.395 393.677 251.392Z" fill="#39B54A"/>
<path d="M400.581 247.293L400.584 242.369L386.781 242.359L386.778 247.284" fill="#39B54A"/>
<path d="M393.68 246.468C389.868 246.465 386.779 244.625 386.781 242.359C386.782 240.092 389.874 238.257 393.685 238.26C397.497 238.262 400.586 240.102 400.584 242.369C400.582 244.635 397.491 246.47 393.68 246.468Z" fill="#3AD84A"/>
<path d="M323.142 101.141C308.12 101.13 295.948 92.4862 295.955 81.8336C295.962 71.181 308.146 62.5538 323.169 62.5643C338.191 62.5748 350.363 71.2189 350.356 81.8715C350.348 92.5241 338.164 101.151 323.142 101.141Z" fill="#DB2955"/>
<path d="M323.563 78.9801C312.352 78.9723 303.267 75.1075 303.27 70.3478C303.273 65.5881 312.364 61.736 323.575 61.7438C334.785 61.7516 343.871 65.6164 343.868 70.3761C343.864 75.1358 334.773 78.9879 323.563 78.9801Z" fill="#974C26"/>
<path d="M322.143 70.7714C320.444 68.5102 318.915 66.1302 317.216 63.4612C315.041 60.0611 313.002 56.5763 311.15 52.9895C309.414 49.8019 307.932 46.4828 306.718 43.0628C305.368 39.3547 304.285 35.5549 303.477 31.6926C303.273 30.6729 303.087 29.6532 302.918 28.6335C302.918 28.1577 302.833 28.2087 302.833 28.2766C302.833 28.3446 302.833 27.9538 302.833 27.393C302.648 25.3198 302.513 23.2466 302.498 21.1565C302.405 13.9553 303.8 6.81241 306.594 0.173644C314.005 10.9279 318.999 23.1569 321.232 36.021C321.379 36.7915 321.514 37.5619 321.639 38.3323C321.639 38.3323 321.842 39.7428 321.926 40.3036L322.078 42.2409C322.179 43.2152 322.269 44.1952 322.348 45.1808C322.652 48.9533 322.785 52.7597 322.765 56.5491C322.762 61.29 322.521 66.0307 322.143 70.7714ZM313.44 14.1123C312.941 13.5455 312.431 12.9787 311.91 12.412C312.052 12.8913 312.087 13.3961 312.011 13.8904C312.496 13.8905 312.978 13.9653 313.44 14.1123Z" fill="#999A1C"/>
<path d="M321.336 70.7708C321.202 68.0212 321.137 65.1536 321.139 62.033C321.142 58.0352 321.331 54.0208 321.706 50.0401C321.991 46.448 322.559 42.8839 323.406 39.3807C324.267 35.561 325.402 31.8075 326.8 28.1489C327.173 27.1876 327.563 26.2433 327.97 25.299C328.156 24.8605 328.122 24.8942 328.088 24.9617L328.512 24.1861C329.478 22.365 330.478 20.5439 331.58 18.8073C335.379 12.7463 340.39 7.5303 346.302 3.4844C346.719 16.4358 344.319 29.3239 339.267 41.2641C338.973 41.9836 338.673 42.6975 338.368 43.4057L337.554 45.21L336.69 46.8962C336.249 47.7731 335.797 48.6387 335.334 49.493C333.554 52.8654 331.622 56.0521 329.571 59.205C326.945 63.1672 324.199 67.0112 321.336 70.7708ZM344.564 18.7994C344.452 18.0572 344.317 17.3205 344.159 16.5894C344.019 17.0634 343.776 17.5009 343.448 17.8709C343.858 18.1118 344.228 18.4135 344.547 18.7657L344.564 18.7994Z" fill="#999A1C"/>
<path d="M321.132 72.4122C321.939 70.8604 322.813 69.2745 323.838 67.5693C325.132 65.3867 326.51 63.2553 327.988 61.2092C329.283 59.3356 330.721 57.5684 332.289 55.924C333.983 54.118 335.801 52.4375 337.731 50.8954L339.276 49.7194C339.511 49.549 339.478 49.5489 339.444 49.566L339.914 49.2763C341.023 48.5947 342.131 47.9302 343.273 47.3339C347.247 45.245 351.602 44.0111 356.066 43.7093C352.126 50.913 346.699 57.1652 340.157 62.0366L338.982 62.9057L337.974 63.6215L336.95 64.2861L335.388 65.2574C333.362 66.4842 331.291 67.62 329.175 68.6648C326.539 70.0959 323.835 71.3052 321.132 72.4122ZM350.219 51.6035C350.398 51.1601 350.561 50.7167 350.707 50.2732C350.48 50.483 350.21 50.6399 349.918 50.7333C350.062 51.0056 350.164 51.2992 350.219 51.6035Z" fill="#999A1C"/>
<path d="M322.143 70.7714C320.444 68.5102 318.915 66.1302 317.216 63.4612C315.041 60.0611 313.002 56.5763 311.15 52.9895C309.414 49.8019 307.932 46.4828 306.718 43.0628C305.368 39.3547 304.285 35.5549 303.477 31.6926C303.273 30.6729 303.087 29.6532 302.918 28.6335C302.918 28.1577 302.833 28.2087 302.833 28.2766C302.833 28.3446 302.833 27.9538 302.833 27.393C302.648 25.3198 302.513 23.2466 302.498 21.1565C302.405 13.9553 303.8 6.81241 306.594 0.173644C314.005 10.9279 318.999 23.1569 321.232 36.021C321.379 36.7915 321.514 37.5619 321.639 38.3323C321.639 38.3323 321.842 39.7428 321.926 40.3036L322.078 42.2409C322.179 43.2152 322.269 44.1952 322.348 45.1808C322.652 48.9533 322.785 52.7597 322.765 56.5491C322.762 61.29 322.521 66.0307 322.143 70.7714ZM313.44 14.1123C312.941 13.5455 312.431 12.9787 311.91 12.412C312.052 12.8913 312.087 13.3961 312.011 13.8904C312.496 13.8905 312.978 13.9653 313.44 14.1123Z" fill="#449A1C"/>
<path d="M321.336 70.7708C321.202 68.0212 321.137 65.1536 321.139 62.033C321.142 58.0352 321.331 54.0208 321.706 50.0401C321.991 46.448 322.559 42.8839 323.406 39.3807C324.267 35.561 325.402 31.8075 326.8 28.1489C327.173 27.1876 327.563 26.2433 327.97 25.299C328.156 24.8605 328.122 24.8942 328.088 24.9617L328.512 24.1861C329.478 22.365 330.478 20.5439 331.58 18.8073C335.379 12.7463 340.39 7.5303 346.302 3.4844C346.719 16.4358 344.319 29.3239 339.267 41.2641C338.973 41.9836 338.673 42.6975 338.368 43.4057L337.554 45.21L336.69 46.8962C336.249 47.7731 335.797 48.6387 335.334 49.493C333.554 52.8654 331.622 56.0521 329.571 59.205C326.945 63.1672 324.199 67.0112 321.336 70.7708ZM344.564 18.7994C344.452 18.0572 344.317 17.3205 344.159 16.5894C344.019 17.0634 343.776 17.5009 343.448 17.8709C343.858 18.1118 344.228 18.4135 344.547 18.7657L344.564 18.7994Z" fill="#449A1C"/>
<path d="M321.132 72.4122C321.939 70.8604 322.813 69.2745 323.838 67.5693C325.132 65.3867 326.51 63.2553 327.988 61.2092C329.283 59.3356 330.721 57.5684 332.289 55.924C333.983 54.118 335.801 52.4375 337.731 50.8954L339.276 49.7194C339.511 49.549 339.478 49.5489 339.444 49.566L339.914 49.2763C341.023 48.5947 342.131 47.9302 343.273 47.3339C347.247 45.245 351.602 44.0111 356.066 43.7093C352.126 50.913 346.699 57.1652 340.157 62.0366L338.982 62.9057L337.974 63.6215L336.95 64.2861L335.388 65.2574C333.362 66.4842 331.291 67.62 329.175 68.6648C326.539 70.0959 323.835 71.3052 321.132 72.4122ZM350.219 51.6035C350.398 51.1601 350.561 50.7167 350.707 50.2732C350.48 50.483 350.21 50.6399 349.918 50.7333C350.062 51.0056 350.164 51.2992 350.219 51.6035Z" fill="#449A1C"/>
<path d="M291.854 141.536L289.342 146.26L282.922 142.9L284.419 138.049L291.854 141.536Z" fill="#F4C2AE"/>
<path d="M280.489 138.046C280.489 138.046 266.802 148.258 263.42 158.221C260.038 168.185 268.32 179.077 268.32 179.077" fill="#FFC24D"/>
<path d="M265.294 286.596L258.465 283.023L261.242 275.103L266.588 277.497" fill="#1E3180"/>
<path d="M256.396 266.891L264.317 266.897C264.484 270.156 265.209 274.15 268.001 275.431C269.1 276.098 273.381 277.415 274.77 276.887C276.158 276.359 280.525 275.27 281.049 275.679C281.574 276.089 283.604 277.302 279.506 281.002C275.407 284.702 266.588 287.153 265.403 286.76C264.219 286.367 266.864 278.997 263.563 280.121C259.957 281.347 262.034 289.42 261.491 290.068C260.377 290.747 259.158 291.236 257.885 291.516C256.967 291.047 256.075 290.528 255.213 289.961C255.235 282.231 255.849 274.502 256.396 266.891Z" fill="#1E3180"/>
<path d="M307.012 303.862L299.862 300.273L303.182 293.189L308.797 295.604" fill="#1E3180"/>
<path d="M297.803 281.694L306.545 284.644C306.541 289.748 308.062 293.458 313.161 294.686C315.314 295.198 317.003 294.468 319.09 294.18C319.65 294.058 320.231 294.093 320.773 294.282C321.315 294.471 321.798 294.807 322.169 295.254C323.311 296.803 321.952 298.299 320.759 299.302C316.6 302.821 307.855 304.84 306.713 304.397C305.571 303.954 308.49 296.725 305.194 297.692C301.617 298.745 303.283 306.878 302.736 307.507C301.62 308.13 300.411 308.561 299.159 308.781C298.279 308.262 297.428 307.693 296.61 307.078C296.913 299.422 296.904 289.316 297.803 281.694Z" fill="#1E3180"/>
<path d="M271.345 170.871C267.453 185.969 264.497 201.294 262.493 216.758C259.305 241.546 252.218 271.607 252.825 272.555C253.431 273.502 259.059 279.898 272.013 276.66L286.95 186.811" fill="#100F4E"/>
<path d="M292.754 190.485C292.754 190.485 307.394 220.374 310.637 238.459C313.881 256.545 310.604 286.337 310.604 286.337C310.604 286.337 299.213 291.155 289.734 288.022C289.734 288.022 288.364 243.832 286.798 239.734C285.232 235.637 274.447 218.838 273.986 201.349C273.526 183.86 277.666 174.158 277.666 174.158" fill="#100F4E"/>
<path d="M296.64 170.232C297.456 164.263 298.222 157.905 296.433 152.052C293.527 148.75 290.248 145.794 286.661 143.242C286.661 143.242 281.777 137.387 277.342 140.706C272.417 144.379 266.328 167.58 267.658 176.705C268.887 185.137 276.109 187.082 284.413 189.246C287.228 189.967 290.105 190.415 293.006 190.585C294.465 183.84 295.705 177.061 296.64 170.232Z" fill="#9C1B3B"/>
<path d="M299.172 125.278C299.172 125.278 297.725 141.445 294.951 142.709C292.177 143.973 287.276 140.56 286.47 137.775C285.663 134.99 286.472 134.501 289.295 134.402C292.117 134.302 290.12 134.284 291.837 133.61C295.47 132.212 290.293 123.028 299.172 125.278Z" fill="#FFE4D7"/>
<path d="M295.047 117.765C293.602 117.096 292.081 116.597 290.515 116.278C288.749 115.81 286.893 115.764 285.105 116.146C283.317 116.528 281.651 117.326 280.248 118.472C277.27 121.059 275.358 124.613 274.87 128.472C274.576 131.806 275.326 135.941 278.199 138.178C281.772 140.964 288.066 143.186 290.772 139.053C291.26 138.389 291.646 137.659 291.92 136.887C293.258 133.77 295.109 130.888 297.401 128.354C298.251 127.41 298.823 126.259 299.056 125.023C299.289 123.787 299.174 122.513 298.723 121.336C297.986 119.748 296.678 118.478 295.047 117.765Z" fill="#DE6521"/>
<path d="M321.616 152.57C321.177 152.15 320.627 151.874 320.034 151.776C319.442 151.678 318.835 151.763 318.29 152.021L318.623 151.371C318.634 151.292 318.634 151.211 318.623 151.132C319.339 150.756 318.891 149.422 317.943 149.575C316.279 149.848 315.231 150.035 314.482 151.744C313.947 153.115 313.539 154.534 313.265 155.984C311.064 158.613 308.605 161 305.925 163.108C305.093 163.809 306.273 165.006 307.105 164.323L307.438 164.05C307.495 164.175 307.578 164.286 307.682 164.375C307.785 164.464 307.906 164.528 308.037 164.563C307.978 164.683 307.946 164.816 307.943 164.951C307.941 165.086 307.967 165.22 308.021 165.343C308.076 165.465 308.156 165.574 308.256 165.661C308.356 165.748 308.474 165.811 308.601 165.846C308.069 166.375 307.519 166.871 306.937 167.4C306.155 168.203 307.285 169.264 308.117 168.615C308.949 167.966 309.981 167.197 310.896 166.48C310.496 166.907 310.064 167.334 309.664 167.778C308.932 168.581 310.112 169.796 310.844 168.993C312.842 166.755 314.955 164.636 317.119 162.569C318.298 162.176 319.444 161.685 320.546 161.101C321.777 160.452 323.474 159.547 323.508 157.906C323.336 155.989 322.684 154.151 321.616 152.57Z" fill="#FFE4D7"/>
<path d="M326.519 150.084C325.933 149.201 325.279 149.183 324.424 148.775L325.162 148.199C326.052 147.622 326.803 146.852 327.36 145.943C327.662 145.349 327.143 144.398 326.422 144.703C324.387 145.5 322.46 146.554 320.685 147.839C319.008 148.822 317.866 151.605 317.127 152.928C316.607 153.879 318.048 154.745 318.569 153.778L318.988 152.93C319.096 153.081 319.249 153.194 319.424 153.253C319.424 153.405 319.29 153.541 319.206 153.694C319.117 153.847 319.082 154.026 319.105 154.203C319.051 154.296 319.016 154.4 319.004 154.508C318.886 155.374 318.164 156.884 319.237 157.445C319.387 157.521 319.555 157.556 319.723 157.547L318.364 158.988C318.257 159.096 318.181 159.231 318.145 159.378C318.109 159.526 318.114 159.681 318.158 159.827C318.203 159.972 318.287 160.102 318.4 160.203C318.513 160.303 318.651 160.371 318.799 160.397C318.805 160.511 318.838 160.62 318.896 160.718C318.954 160.815 319.034 160.896 319.13 160.955C319.225 161.013 319.334 161.047 319.446 161.054C319.557 161.06 319.669 161.039 319.771 160.992C322.119 159.992 325.541 158.535 327.068 156.313C327.476 155.306 327.64 154.215 327.544 153.13C327.449 152.046 327.097 151.001 326.519 150.084Z" fill="#FFE4D7"/>
<path d="M312.527 156.459L300.468 167.171L299.775 162.231C299.265 159.263 298.364 156.378 297.095 153.652C289.205 157.609 283.844 167.691 287.136 175.789C290.056 180.011 293.929 184.199 298.348 184.785C307.458 185.992 320.253 168.094 320.253 168.094C319.695 163.548 312.527 156.459 312.527 156.459Z" fill="#FFC24D"/>
<path d="M282.126 118.302C282.134 106.81 263.341 104.833 260.506 115.479C260.139 116.92 260.106 118.43 260.409 119.887C260.712 121.344 261.342 122.707 262.249 123.864C263.156 125.021 264.313 125.94 265.627 126.547C266.941 127.154 268.375 127.431 269.812 127.356C273.604 127.092 277.306 126.034 280.692 124.245" fill="#DE6521"/>
<defs>
<filter id="filter0_f" x="0.604492" y="83.4755" width="732.887" height="531.239" filterUnits="userSpaceOnUse" color-interpolation-filters="sRGB">
<feFlood flood-opacity="0" result="BackgroundImageFix"/>
<feBlend mode="normal" in="SourceGraphic" in2="BackgroundImageFix" result="shape"/>
<feGaussianBlur stdDeviation="62" result="effect1_foregroundBlur"/>
</filter>
<linearGradient id="paint0_linear" x1="57.1217" y1="253.599" x2="669.159" y2="240.764" gradientUnits="userSpaceOnUse">
<stop stop-color="#FFC24D"/>
<stop offset="1" stop-color="#DB2955"/>
</linearGradient>
<linearGradient id="paint1_linear" x1="483.674" y1="160.897" x2="567.71" y2="218.629" gradientUnits="userSpaceOnUse">
<stop stop-color="#DB2955"/>
<stop offset="1" stop-color="#DB2955" stop-opacity="0"/>
</linearGradient>
<linearGradient id="paint2_linear" x1="-18161.4" y1="6463" x2="-19509.7" y2="4930.56" gradientUnits="userSpaceOnUse">
<stop stop-color="white" stop-opacity="0"/>
<stop offset="0.98" stop-color="#0800BF"/>
</linearGradient>
<linearGradient id="paint3_linear" x1="-38390" y1="20037.4" x2="-40243.9" y2="16318.3" gradientUnits="userSpaceOnUse">
<stop stop-color="white" stop-opacity="0"/>
<stop offset="0.98" stop-color="#0800BF"/>
</linearGradient>
<linearGradient id="paint4_linear" x1="372.993" y1="256.206" x2="471.718" y2="365.52" gradientUnits="userSpaceOnUse">
<stop offset="0.196516" stop-color="#DB2955"/>
<stop offset="1" stop-color="#DB2955" stop-opacity="0"/>
</linearGradient>
</defs>
</svg>
